<svg width="16" height="16" viewBox="0 0 16 16" fill="none" xmlns="http://www.w3.org/2000/svg">
<path d="M8 0.00410306C5.94501 -0.0648839 3.94833 0.738399 2.44839 2.23757C0.94845 3.73674 0.0678685 5.80924 0 8C0.0678685 10.1908 0.94845 12.2633 2.44839 13.7624C3.94833 15.2616 5.94501 16.0649 8 15.9959C10.055 16.0649 12.0517 15.2616 13.5516 13.7624C15.0515 12.2633 15.9321 10.1908 16 8C15.9321 5.80924 15.0515 3.73674 13.5516 2.23757C12.0517 0.738399 10.055 -0.0648839 8 0.00410306ZM14.71 7.25372L13.48 6.93388C13.23 6.85925 13.21 6.83793 13.19 6.80595C13.04 6.59272 12.87 6.30487 12.71 6.02768C12.71 5.93173 12.58 5.78247 12.55 5.69718C12.52 5.61189 12.9 5.05751 13.06 4.80164C13.2325 4.61046 13.4315 4.44866 13.65 4.32189C14.2314 5.18716 14.5963 6.19624 14.71 7.25372ZM8 1.33675L7.91 1.51799C7.90107 1.48309 7.90107 1.44628 7.91 1.41138C7.91 1.47535 7.76 1.5713 7.66 1.67791L7.36 1.98709C7.22318 2.13916 7.14034 2.33731 7.12574 2.54745C7.11114 2.75759 7.16569 2.96659 7.28 3.13849H7.16C7.00209 3.14336 6.84724 3.18615 6.707 3.26368C6.56675 3.34121 6.44472 3.45147 6.35 3.58626C6.23944 3.74872 6.16414 3.93534 6.12955 4.13264C6.09496 4.32993 6.10195 4.53295 6.15 4.72701V4.80164C6.00415 4.82936 5.86042 4.86856 5.72 4.91891L5.48 5.0042L4.84 5.22809C4.64931 5.28764 4.47547 5.39675 4.33409 5.54561C4.19271 5.69447 4.08822 5.87844 4.03 6.08098C3.98349 6.25096 3.97742 6.43061 4.01233 6.60371C4.04725 6.77681 4.12206 6.93791 4.23 7.07248C4.63051 7.53399 5.09611 7.92606 5.61 8.23455C6.11298 8.59184 6.68281 8.82829 7.28 8.92752H8.96C9.1623 8.91722 9.36376 8.96168 9.54561 9.05675C9.72746 9.15182 9.88377 9.29441 10 9.47125C10.0544 9.53107 10.0946 9.60389 10.1172 9.68364C10.1398 9.76339 10.1442 9.84775 10.13 9.92968C10.1101 10.0655 10.0585 10.1938 9.98 10.3028C9.4824 10.7367 9.14569 11.3451 9.03 12.0193C8.90045 12.5204 8.74011 13.0119 8.55 13.4905C8.43 13.821 8.32 14.1408 8.24 14.3967C7.90454 14.4225 7.56736 14.3937 7.24 14.3114C7.31969 13.5193 7.14329 12.7219 6.74 12.0513C6.4037 11.6276 6.2163 11.0923 6.21 10.5374C6.27463 10.0109 6.16251 9.47707 5.89348 9.03026C5.62446 8.58346 5.21587 8.2525 4.74 8.09595C3.62046 7.35411 2.63762 6.40024 1.84 5.28139C2.41789 4.07541 3.30151 3.06643 4.39043 2.36912C5.47936 1.67182 6.72992 1.31414 8 1.33675ZM1.25 8C1.24981 7.58445 1.29002 7.17001 1.37 6.7633C2.19091 7.81082 3.18798 8.6858 4.31 9.34331C4.91 9.57786 5 9.82306 5 10.5374C5.00221 11.4285 5.30781 12.2885 5.86 12.9575C6.00747 13.4199 6.05532 13.9118 6 14.3967C4.66353 14.0261 3.47679 13.2012 2.61964 12.0469C1.76249 10.8926 1.28165 9.47185 1.25 8ZM9.57 14.482C9.57 14.3221 9.69 14.1408 9.75 13.9703C9.97733 13.4189 10.1613 12.8483 10.3 12.2645C10.3783 11.9029 10.5685 11.5799 10.84 11.3476C11.1899 10.9808 11.3941 10.4846 11.41 9.96166C11.4223 9.71375 11.3869 9.46578 11.3061 9.23296C11.2253 9.00014 11.1007 8.78736 10.94 8.60769C10.6995 8.29309 10.3935 8.04258 10.0463 7.87602C9.69917 7.70947 9.32037 7.63146 8.94 7.64818H7.35C6.60317 7.43249 5.91677 7.02635 5.35 6.46479L5.82 6.29421L6.09 6.20892C6.20892 6.15089 6.33949 6.12525 6.47 6.13429L6.56 6.29421C6.63484 6.44383 6.75926 6.55839 6.909 6.61555C7.05875 6.67271 7.22309 6.66837 7.37 6.60338C7.51543 6.53105 7.63063 6.4039 7.6934 6.24644C7.75617 6.08898 7.76208 5.91232 7.71 5.75049V5.55859C7.6 5.23875 7.47 4.79098 7.39 4.49247C7.64938 4.50407 7.90678 4.43964 8.13422 4.30618C8.36166 4.17273 8.55042 3.97536 8.68 3.73552C8.74208 3.55688 8.75813 3.36377 8.72647 3.17627C8.69482 2.98878 8.61661 2.81375 8.5 2.6694C8.61768 2.5568 8.72795 2.43569 8.83 2.30692C8.92179 2.18983 8.98893 2.05309 9.02688 1.90595C9.06484 1.75881 9.07272 1.60469 9.05 1.45403C10.4477 1.67339 11.7492 2.34297 12.78 3.37304C12.4774 3.57007 12.2099 3.82274 11.99 4.11932C11.7518 4.49047 11.5379 4.87876 11.35 5.28139C11.2693 5.52991 11.249 5.79616 11.291 6.0553C11.333 6.31444 11.4358 6.55802 11.59 6.7633C11.77 7.0938 11.97 7.41363 12.15 7.68016C12.3981 8.01355 12.7554 8.23447 13.15 8.29851C13.37 8.36248 14.15 8.53306 14.7 8.65033C14.5232 10.0718 13.9334 11.3985 13.0133 12.4444C12.0933 13.4902 10.8892 14.2028 9.57 14.482Z" fill="#111111"/>
</svg>
